# xmcd
#
# Track frame offsets: 
#        150
#        19307
#        38156
#        54538
#        72502
#        90638
#        109333
#        128093
#        144731
#        160396
#        181464
#        198957
#        215567
#
# Disc length: 3094 seconds
#
# Revision: 0
# Processed by: cddbd v1.5.2PL0 Copyright (c) Steve Scherf et al.
# Submitted via: ExactAudioCopy v0.95b3
#
DISCID=c40c140d
DTITLE=Jessta James - Time To Get Right
DYEAR=2013
DGENRE=Country
TTITLE0=If That Ain't Country
TTITLE1=Outlaw Heaven
TTITLE2=Cowgirl Boots
TTITLE3=Ride One
TTITLE4=Rock N Roll Angel
TTITLE5=Better Man
TTITLE6=Made In The USA
TTITLE7=Bow Chicka
TTITLE8=Back In The Day
TTITLE9=Time To Get Right
TTITLE10=Lets Ride
TTITLE11=I Can't Stop Loving You
TTITLE12=Run, Sinner, Run
EXTD=
EXTT0=
EXTT1=
EXTT2=
EXTT3=
EXTT4=
EXTT5=
EXTT6=
EXTT7=
EXTT8=
EXTT9=
EXTT10=
EXTT11=
EXTT12=
PLAYORDER=
